name C:\Users\u0101727\Documents\MyRepositories\paper-ad\predictivesimulations_2d/Results/PredSim_2D/IK_c15.mot
datacolumns 11
datarows 30
range 0.00000000 0.27821526
endheader
time	pelvis_tilt	pelvis_tx	pelvis_ty	hip_flexion_l	hip_flexion_r	knee_angle_l	knee_angle_r	ankle_angle_l	ankle_angle_r	lumbar_extension	
          0.00000000	        -15.13799642	          0.00000000	          0.88363924	          0.96060455	         38.07223210	        -16.23152409	        -10.56572398	          5.77392622	         13.83902449	          9.64194577	
          0.00959363	        -15.09995436	          0.01477790	          0.88285304	          0.86691853	         37.58754691	        -17.72524357	         -9.96033609	          4.57350031	         13.39073337	          9.73883464	
          0.01918726	        -15.05086507	          0.02981924	          0.88201593	          0.85197323	         37.00768120	        -19.38645448	         -9.64096333	          3.26924195	         12.89034754	          9.84876519	
          0.02878089	        -14.99328558	          0.04510698	          0.88115128	          0.92300617	         36.26456739	        -21.21203742	         -9.72816129	          1.84114898	         12.33580549	          9.97571070	
          0.03837452	        -14.93542499	          0.06045525	          0.88038603	          1.08464833	         35.40134495	        -23.18341300	        -10.04223744	          0.37457426	         11.76642680	         10.11024150	
          0.04796815	        -14.88825915	          0.07552335	          0.87994966	          1.36375866	         34.54320521	        -25.20815111	        -10.32225890	         -0.90893516	         11.21614776	         10.22911495	
          0.05756178	        -14.86035322	          0.09006416	          0.88010390	          1.78860515	         33.72740274	        -27.14604372	        -10.58036777	         -1.91133753	         10.68486037	         10.31841967	
          0.06715541	        -14.85405005	          0.10401470	          0.88100452	          2.35509325	         32.95639662	        -28.93445973	        -10.81144178	         -2.66200799	         10.18722811	         10.37701514	
          0.07674904	        -14.86465666	          0.11745824	          0.88261073	          3.04644624	         32.21165436	        -30.59411398	        -11.00348519	         -3.17040988	          9.73953197	         10.41103831	
          0.08634267	        -14.88557947	          0.13051897	          0.88471276	          3.84211617	         31.47205492	        -32.15409935	        -11.14757084	         -3.44929528	          9.35325932	         10.42751379	
          0.09593630	        -14.91145654	          0.14330441	          0.88707801	          4.72654038	         30.72080061	        -33.63199135	        -11.23689323	         -3.51420336	          9.03469659	         10.43175860	
          0.10552993	        -14.93884914	          0.15588878	          0.88952378	          5.68769229	         29.94844834	        -35.03627792	        -11.26954267	         -3.38013997	          8.78546690	         10.42696833	
          0.11512356	        -14.96586335	          0.16831906	          0.89192644	          6.71656323	         29.15047604	        -36.36828459	        -11.24596485	         -3.06342443	          8.60452346	         10.41490055	
          0.12471719	        -14.99153825	          0.18062531	          0.89420678	          7.80575404	         28.32533828	        -37.62488978	        -11.16816173	         -2.58081652	          8.48922051	         10.39656569	
          0.13431082	        -15.01538352	          0.19282785	          0.89631439	          8.94908295	         27.47341164	        -38.80121243	        -11.03961863	         -1.94917295	          8.43582865	         10.37257709	
          0.14390445	        -15.03713181	          0.20494174	          0.89821684	         10.14099462	         26.59634319	        -39.89117184	        -10.86518930	         -1.18543596	          8.43981255	         10.34338621	
          0.15349808	        -15.05661264	          0.21697939	          0.89989315	         11.37614706	         25.69672713	        -40.88797147	        -10.65088846	         -0.30678243	          8.49601108	         10.30939998	
          0.16309171	        -15.07370300	          0.22895171	          0.90133069	         12.64911116	         24.77786825	        -41.78446143	        -10.40373242	          0.66939162	          8.59883550	         10.27103623	
          0.17268534	        -15.08831466	          0.24086820	          0.90252455	         13.95450717	         23.84373273	        -42.57306091	        -10.13174020	          1.72552029	          8.74249055	         10.22868775	
          0.18227897	        -15.10043153	          0.25273647	          0.90347803	         15.28734753	         22.89876023	        -43.24555846	         -9.84271635	          2.84393653	          8.92111447	         10.18267011	
          0.19187259	        -15.11017721	          0.26456381	          0.90420171	         16.64164751	         21.94684271	        -43.79445021	         -9.54370617	          4.00682909	          9.12820708	         10.13346042	
          0.20146622	        -15.11771535	          0.27635651	          0.90471254	         18.01156705	         20.99214875	        -44.21208221	         -9.24227767	          5.19635343	          9.35608515	         10.08149053	
          0.21105985	        -15.12318739	          0.28812007	          0.90503127	         19.39162934	         20.03925868	        -44.49062016	         -8.94629325	          6.39469018	          9.59671043	         10.02710084	
          0.22065348	        -15.12673836	          0.29986050	          0.90517932	         20.77534621	         19.09297368	        -44.62312142	         -8.66412219	          7.58403777	          9.84213158	          9.97066935	
          0.23024711	        -15.12858766	          0.31158484	          0.90517693	         22.15578633	         18.15654157	        -44.60397527	         -8.40141168	          8.74671790	         10.08499218	          9.91272933	
          0.23984074	        -15.12905154	          0.32330145	          0.90504223	         23.52606752	         17.23077359	        -44.42911819	         -8.15945894	          9.86536193	         10.31865820	          9.85402175	
          0.24943437	        -15.12841281	          0.33501907	          0.90479074	         24.87831636	         16.31708205	        -44.09654118	         -7.94104666	         10.92323520	         10.53634772	          9.79528049	
          0.25902800	        -15.12691534	          0.34674596	          0.90443557	         26.20453404	         15.41761473	        -43.60534168	         -7.74980916	         11.90489574	         10.73195337	          9.73712960	
          0.26862163	        -15.12479992	          0.35849113	          0.90398743	         27.49595883	         14.53394946	        -42.95849877	         -7.58876546	         12.79695031	         10.90082285	          9.68029894	
          0.27821526	        -15.12232465	          0.37026307	          0.90345545	         28.74456649	         13.66701572	        -42.16055245	         -7.45994066	         13.58916603	         11.04000600	          9.62548173	
